<?xml version="1.0" encoding="UTF-8"?>
<svg width="506px" height="83px" viewBox="0 0 506 83" version="1.1" xmlns="http://www.w3.org/2000/svg" xmlns:xlink="http://www.w3.org/1999/xlink">
    <!-- Generator: Sketch 42 (36781) - http://www.bohemiancoding.com/sketch -->
    <title>Page 1</title>
    <desc>Created with Sketch.</desc>
    <defs>
        <polygon id="path-1" points="505.8878 82.071 0 82.071 0 0 505.8878 0"></polygon>
    </defs>
    <g id="Page-1" stroke="none" stroke-width="1" fill="none" fill-rule="evenodd">
        <g id="Artboard" transform="translate(-352.000000, -180.000000)">
            <g id="Page-1" transform="translate(352.000000, 180.000000)">
                <mask id="mask-2" fill="white">
                    <use xlink:href="#path-1"></use>
                </mask>
                <g id="Clip-2"></g>
                <path d="M10.5698,80.7244 L10.5698,45.6994 L27.6678,45.6994 L27.6678,35.6474 L10.5698,35.6474 L10.5698,11.3994 L28.3928,11.3994 L28.3928,1.3474 L-0.0002,1.3474 L-0.0002,80.7244 L10.5698,80.7244 Z M35.3358,65.4914 C35.3358,77.2014 42.9008,82.0714 51.8128,82.0714 C60.5168,82.0714 68.0818,77.4084 68.0818,65.4914 L68.0818,16.5794 C68.0818,4.9744 62.1748,-0.0006 52.3308,-0.0006 C42.5898,-0.0006 35.3358,4.8704 35.3358,16.5794 L35.3358,65.4914 Z M57.5118,64.1444 C57.5118,69.9474 54.6098,72.0204 51.7088,72.0204 C48.8068,72.0204 45.9058,69.9474 45.9058,64.1444 L45.9058,17.9274 C45.9058,12.1234 48.8068,10.0524 51.7088,10.0524 C54.6098,10.0524 57.5118,12.1234 57.5118,17.9274 L57.5118,64.1444 Z M111.1878,80.7244 L101.4468,45.8024 C107.2498,43.3154 109.1158,38.6524 109.1158,30.6734 L109.1158,17.9274 C109.1158,6.0104 102.4838,1.3474 94.5048,1.3474 L76.8878,1.3474 L76.8878,80.7244 L87.4578,80.7244 L87.4578,48.0814 L91.4988,48.0814 L100.6178,80.7244 L111.1878,80.7244 Z M98.5458,30.1554 C98.5458,35.9574 96.6808,38.0314 92.7428,38.0314 L87.4578,38.0314 L87.4578,11.3994 L92.7428,11.3994 C96.6808,11.3994 98.5458,13.4714 98.5458,19.2744 L98.5458,30.1554 Z M146.0048,80.7244 L146.0048,70.6714 L128.2848,70.6714 L146.0048,6.8394 L146.0048,1.3474 L118.3368,1.3474 L118.3368,11.3994 L133.9848,11.3994 L117.4048,70.6714 L117.4048,80.7244 L146.0048,80.7244 Z M189.1118,80.7244 L178.3348,1.3474 L162.7918,1.3474 L152.1178,80.7244 L162.6878,80.7244 L164.7608,63.1084 L176.4698,63.1084 L178.5428,80.7244 L189.1118,80.7244 Z M175.2268,53.0564 L165.8998,53.0564 L170.5638,13.4714 L175.2268,53.0564 Z M224.0328,80.7244 L224.0328,45.6994 L241.1308,45.6994 L241.1308,35.6474 L224.0328,35.6474 L224.0328,11.3994 L241.8558,11.3994 L241.8558,1.3474 L213.4628,1.3474 L213.4628,80.7244 L224.0328,80.7244 Z M248.7988,65.4914 C248.7988,77.2014 256.3638,82.0714 265.2758,82.0714 C273.9798,82.0714 281.5458,77.4084 281.5458,65.4914 L281.5458,16.5794 C281.5458,4.9744 275.6378,-0.0006 265.7948,-0.0006 C256.0528,-0.0006 248.7988,4.8704 248.7988,16.5794 L248.7988,65.4914 Z M270.9748,64.1444 C270.9748,69.9474 268.0728,72.0204 265.1728,72.0204 C262.2698,72.0204 259.3688,69.9474 259.3688,64.1444 L259.3688,17.9274 C259.3688,12.1234 262.2698,10.0524 265.1728,10.0524 C268.0728,10.0524 270.9748,12.1234 270.9748,17.9274 L270.9748,64.1444 Z M290.3508,65.4914 C290.3508,77.2014 297.9168,82.0714 306.8278,82.0714 C315.5318,82.0714 323.0968,77.4084 323.0968,65.4914 L323.0968,16.5794 C323.0968,4.9744 317.1898,-0.0006 307.3458,-0.0006 C297.6048,-0.0006 290.3508,4.8704 290.3508,16.5794 L290.3508,65.4914 Z M312.5268,64.1444 C312.5268,69.9474 309.6268,72.0204 306.7238,72.0204 C303.8228,72.0204 300.9218,69.9474 300.9218,64.1444 L300.9218,17.9274 C300.9218,12.1234 303.8228,10.0524 306.7238,10.0524 C309.6268,10.0524 312.5268,12.1234 312.5268,17.9274 L312.5268,64.1444 Z M350.0378,80.7244 L350.0378,11.3994 L359.8818,11.3994 L359.8818,1.3474 L329.6238,1.3474 L329.6238,11.3994 L339.4678,11.3994 L339.4678,80.7244 L350.0378,80.7244 Z M386.3058,80.7244 C394.2858,80.7244 400.7108,75.6464 400.7108,64.1444 L400.7108,52.7454 C400.7108,46.8394 398.5338,42.3834 392.1088,39.9984 C397.7048,37.8234 399.6738,33.3674 399.6738,27.9784 L399.6738,17.9274 C399.6738,6.4254 393.2488,1.3474 385.2698,1.3474 L367.4468,1.3474 L367.4468,80.7244 L386.3058,80.7244 Z M389.1038,27.2544 C389.1038,33.0574 387.2388,35.1294 383.3008,35.1294 L378.0158,35.1294 L378.0158,11.3994 L383.3008,11.3994 C387.2388,11.3994 389.1038,13.4714 389.1038,19.2744 L389.1038,27.2544 Z M390.1408,62.7964 C390.1408,68.6004 388.2748,70.6714 384.3388,70.6714 L378.0158,70.6714 L378.0158,45.1814 L383.3008,45.1814 C387.2388,45.1814 390.1408,47.2534 390.1408,53.0564 L390.1408,62.7964 Z M444.4398,80.7244 L433.6628,1.3474 L418.1188,1.3474 L407.4448,80.7244 L418.0148,80.7244 L420.0888,63.1084 L431.7978,63.1084 L433.8698,80.7244 L444.4398,80.7244 Z M430.5538,53.0564 L421.2278,53.0564 L425.8908,13.4714 L430.5538,53.0564 Z M475.2158,80.7244 L475.2158,70.6714 L462.5728,70.6714 L462.5728,1.3474 L452.0038,1.3474 L452.0038,80.7244 L475.2158,80.7244 Z M505.8878,80.7244 L505.8878,70.6714 L493.2458,70.6714 L493.2458,1.3474 L482.6758,1.3474 L482.6758,80.7244 L505.8878,80.7244 Z" id="Fill-1" fill="#FEFEFE" mask="url(#mask-2)"></path>
            </g>
        </g>
    </g>
</svg>