<svg id="Layer_1" data-name="Layer 1" xmlns="http://www.w3.org/2000/svg" viewBox="0 0 501.77 77.6"><defs><style>.cls-1{fill:#fff;}</style></defs><title>VARVET</title><path class="cls-1" d="M169.12,74H158.93L136,5.31h6.49l21.72,64.75L186.11,5.31h6.18Zm81.28,0-7.51-19.66H208.61L201.2,74h-6.38L221,5.31h10.09L257,74ZM225.81,8.92,211.08,48.14h29.34ZM314,74,295.06,44a2,2,0,0,0-1.75-.93H273.75V74h-6.38V5.31h36.54a6.76,6.76,0,0,1,4.94,2.06l5.35,5.35a6.92,6.92,0,0,1,2.16,5.15V30.64a7.08,7.08,0,0,1-2.16,5.15L309,41a6.76,6.76,0,0,1-5,2.06h-2.47l20,30.88Zm-4-55.79a1.87,1.87,0,0,0-.62-1.44l-4.43-4.43a1.87,1.87,0,0,0-1.44-.62H273.75v25H303.4a2,2,0,0,0,1.44-.62l4.53-4.53a1.87,1.87,0,0,0,.62-1.44Zm50,55.79H349.75l-23-68.66h6.49L355,70.06,376.93,5.31h6.18Zm38,0V5.31h42.62V11.7H404.37V36.4h36.23v6.38H404.37V67.59h36.23V74ZM481.33,11.7V74h-6.38V11.7H453.64V5.31h49V11.7Z" transform="translate(-0.87 -0.85)"/><path class="cls-1" d="M73.79,78.45A18.48,18.48,0,0,1,57.07,67.77l0,0-2.07-5-2.07,5A18.46,18.46,0,0,1,19.11,67L2.27,26.38A18.46,18.46,0,1,1,36.38,12.25L55,57.17l18.6-44.92a18.46,18.46,0,0,1,34.11,14.13L90.85,67A18.51,18.51,0,0,1,73.79,78.45ZM59,66.89a16.33,16.33,0,0,0,29.87-.67l16.84-40.66a16.33,16.33,0,0,0-30.18-12.5L56.14,60ZM19.3,3A16.33,16.33,0,0,0,4.24,25.56L21.08,66.23A16.32,16.32,0,0,0,51,66.87L53.83,60,34.41,13.06A16.35,16.35,0,0,0,19.3,3Z" transform="translate(-0.87 -0.85)"/></svg>