<?xml version="1.0" encoding="UTF-8"?>
<svg width="514px" height="131px" viewBox="0 0 514 131" version="1.1" xmlns="http://www.w3.org/2000/svg" xmlns:xlink="http://www.w3.org/1999/xlink">
    <!-- Generator: Sketch 42 (36781) - http://www.bohemiancoding.com/sketch -->
    <title>Logo</title>
    <desc>Created with Sketch.</desc>
    <defs>
        <filter x="-50%" y="-50%" width="200%" height="200%" filterUnits="objectBoundingBox" id="filter-1">
            <feOffset dx="0" dy="5" in="SourceAlpha" result="shadowOffsetOuter1"></feOffset>
            <feGaussianBlur stdDeviation="16.5" in="shadowOffsetOuter1" result="shadowBlurOuter1"></feGaussianBlur>
            <feColorMatrix values="0 0 0 0 0   0 0 0 0 0   0 0 0 0 0  0 0 0 0.5 0" type="matrix" in="shadowBlurOuter1" result="shadowMatrixOuter1"></feColorMatrix>
            <feMerge>
                <feMergeNode in="shadowMatrixOuter1"></feMergeNode>
                <feMergeNode in="SourceGraphic"></feMergeNode>
            </feMerge>
        </filter>
    </defs>
    <g id="Page-1" stroke="none" stroke-width="1" fill="none" fill-rule="evenodd">
        <g id="Desktop-HD-Copy-3" transform="translate(-34.000000, -20.000000)">
            <g id="Logo" filter="url(#filter-1)" transform="translate(66.000000, 47.000000)">
                <path d="M44.214479,13.3587692 C41.0773629,11.8744541 37.8937038,11.1323077 34.6634061,11.1323077 C30.6255339,11.1323077 26.9293833,12.0909135 23.5748434,14.0081538 C20.2203034,15.9253942 17.5801959,18.5692908 15.6544414,21.9399231 C13.728687,25.3105553 12.7658243,29.0058261 12.7658243,33.0258462 C12.7658243,37.0458663 13.728687,40.741137 15.6544414,44.1117692 C17.5801959,47.4824015 20.2203034,50.1417595 23.5748434,52.0899231 C26.9293833,54.0380867 30.6255339,55.0121538 34.6634061,55.0121538 C37.7694616,55.0121538 40.8910005,54.331853 44.0281166,52.9712308 C47.1652326,51.6106086 49.9451106,49.7243198 52.3678339,47.3123077 L59.7291486,55.476 C56.3124876,58.9394019 52.3367961,61.6760669 47.8019551,63.6860769 C43.2671141,65.696087 38.6702209,66.7010769 34.0111377,66.7010769 C27.7369055,66.7010769 21.9907891,65.2167841 16.7726158,62.2481538 C11.5544426,59.2795236 7.45451083,55.2441024 4.47269755,50.1417692 C1.49088428,45.039436 0,39.3960309 0,33.2113846 C0,27.0267383 1.52194437,21.3987946 4.56587875,16.3273846 C7.60981314,11.2559746 11.756335,7.26693761 17.0055688,4.36015385 C22.2548026,1.45337008 28.0785693,0 34.4770437,0 C39.1361269,0 43.70196,0.927683031 48.1746799,2.78307692 C52.6473998,4.63847082 56.4677908,7.20506053 59.6359674,10.4829231 L52.3678339,19.5743077 C50.0693528,16.9149098 47.351595,14.8430843 44.214479,13.3587692 Z M117.268539,4.36015385 C122.579894,7.26693761 126.757476,11.2559746 129.80141,16.3273846 C132.845345,21.3987946 134.367289,27.0267383 134.367289,33.2113846 C134.367289,39.3960309 132.845345,45.039436 129.80141,50.1417692 C126.757476,55.2441024 122.579894,59.2795236 117.268539,62.2481538 C111.957184,65.2167841 106.071297,66.7010769 99.6107018,66.7010769 C93.1501064,66.7010769 87.2642195,65.2167841 81.9528646,62.2481538 C76.6415097,59.2795236 72.4639277,55.2441024 69.4199933,50.1417692 C66.3760589,45.039436 64.8541145,39.3960309 64.8541145,33.2113846 C64.8541145,27.0267383 66.3760589,21.3987946 69.4199933,16.3273846 C72.4639277,11.2559746 76.6415097,7.26693761 81.9528646,4.36015385 C87.2642195,1.45337008 93.1501064,0 99.6107018,0 C106.071297,0 111.957184,1.45337008 117.268539,4.36015385 Z M88.7085015,14.0545385 C85.2918405,16.002702 82.5896127,18.6620601 80.6017372,22.0326923 C78.6138617,25.4033245 77.6199388,29.1295181 77.6199388,33.2113846 C77.6199388,37.2932512 78.6293917,41.0349061 80.6483278,44.4364615 C82.6672639,47.838017 85.3694916,50.5282978 88.7550921,52.5073846 C92.1406926,54.4864714 95.8213132,55.476 99.7970642,55.476 C103.710694,55.476 107.344725,54.4864714 110.699264,52.5073846 C114.053804,50.5282978 116.709442,47.838017 118.666257,44.4364615 C120.623072,41.0349061 121.601465,37.2932512 121.601465,33.2113846 C121.601465,29.1295181 120.623072,25.4033245 118.666257,22.0326923 C116.709442,18.6620601 114.053804,16.002702 110.699264,14.0545385 C107.344725,12.1063749 103.710694,11.1323077 99.7970642,11.1323077 C95.8213132,11.1323077 92.1251626,12.1063749 88.7085015,14.0545385 Z M184.452184,13.3587692 C181.315067,11.8744541 178.131408,11.1323077 174.901111,11.1323077 C170.863238,11.1323077 167.167088,12.0909135 163.812548,14.0081538 C160.458008,15.9253942 157.8179,18.5692908 155.892146,21.9399231 C153.966392,25.3105553 153.003529,29.0058261 153.003529,33.0258462 C153.003529,37.0458663 153.966392,40.741137 155.892146,44.1117692 C157.8179,47.4824015 160.458008,50.1417595 163.812548,52.0899231 C167.167088,54.0380867 170.863238,55.0121538 174.901111,55.0121538 C178.007166,55.0121538 181.128705,54.331853 184.265821,52.9712308 C187.402937,51.6106086 190.182815,49.7243198 192.605538,47.3123077 L199.966853,55.476 C196.550192,58.9394019 192.574501,61.6760669 188.03966,63.6860769 C183.504819,65.696087 178.907925,66.7010769 174.248842,66.7010769 C167.97461,66.7010769 162.228494,65.2167841 157.01032,62.2481538 C151.792147,59.2795236 147.692215,55.2441024 144.710402,50.1417692 C141.728589,45.039436 140.237705,39.3960309 140.237705,33.2113846 C140.237705,27.0267383 141.759649,21.3987946 144.803583,16.3273846 C147.847518,11.2559746 151.99404,7.26693761 157.243273,4.36015385 C162.492507,1.45337008 168.316274,0 174.714748,0 C179.373831,0 183.939665,0.927683031 188.412385,2.78307692 C192.885104,4.63847082 196.705495,7.20506053 199.873672,10.4829231 L192.605538,19.5743077 C190.307057,16.9149098 187.5893,14.8430843 184.452184,13.3587692 Z" id="COCO" fill="#FFFEFB"></path>
                <text id="GUIDE" font-family="Montserrat-ExtraLight, Montserrat" font-size="48" font-weight="300" fill="#FFFFFF">
                    <tspan x="301" y="51">GUIDE</tspan>
                </text>
                <g id="noun_107284" transform="translate(206.114101, 0.000000)" fill-rule="nonzero" fill="#AB926E">
                    <path d="M18.0510791,3.88743523 C1.62850016,12.5328021 -4.65077393,32.8011266 4.03477823,49.1546691 C12.7239165,65.5082115 33.0768691,71.7543686 49.5048272,63.1107868 C65.9309922,54.4600645 72.2030941,34.2006657 63.519335,17.8417679 C54.8337828,1.49536593 34.4772441,-4.7543614 18.0510791,3.88743523 Z M40.249084,23.3060396 C37.5236423,25.8337785 33.2579676,25.6820428 30.7172105,22.972221 C28.1818325,20.2534735 28.332449,16.0120134 31.0596837,13.4807042 C33.7797462,10.9601058 38.045421,11.1100564 40.5879711,13.8180931 C43.1269352,16.5297 42.9745256,20.7800858 40.249084,23.3060396 Z M53.8153283,34.4398726 C52.5297088,35.6359073 50.53404,35.5573617 49.3398663,34.2792112 C48.1438994,33.0117715 48.2192077,31.0195705 49.499448,29.825321 C50.7778953,28.638212 52.7825294,28.7078319 53.9749101,29.9841972 C55.1637047,31.2623477 55.0955687,33.2527636 53.8153283,34.4398726 Z M58.412718,28.1794345 C57.7223924,28.8149395 56.6501462,28.7810221 56.008233,28.0937484 C55.3663198,27.4118302 55.4093531,26.3371841 56.0960926,25.7123899 C56.7864183,25.0715295 57.8604575,25.1108023 58.5059568,25.7891503 C59.1371117,26.4710686 59.0958715,27.536789 58.412718,28.1794345 Z M53.7436062,23.1900064 C51.9989649,24.8037606 49.2681441,24.710934 47.6382583,22.9740061 C46.0155447,21.235293 46.1105765,18.5165456 47.8570109,16.8956509 C49.6034452,15.2783264 52.3378521,15.3729381 53.9587726,17.1134363 C55.5886584,18.8503642 55.4918335,21.5708968 53.7436062,23.1900064 Z" id="Shape"></path>
                </g>
            </g>
        </g>
    </g>
</svg>